<?xml version="1.0" encoding="utf-8"?>
<!-- Generator: Adobe Illustrator 23.1.1, SVG Export Plug-In . SVG Version: 6.00 Build 0)  -->
<svg version="1.1" id="Layer_1" xmlns="http://www.w3.org/2000/svg" xmlns:xlink="http://www.w3.org/1999/xlink" x="0px" y="0px"
	 viewBox="0 0 651.72 406.9" style="enable-background:new 0 0 651.72 406.9;" xml:space="preserve">
<style type="text/css">
	.st0{fill:#164476;stroke:#2F449C;stroke-miterlimit:10;}
	.st1{fill:#FFFFFF;stroke:#2564A8;stroke-width:8;stroke-miterlimit:10;}
	.st2{fill:#C03C3C;stroke:#C03C3C;stroke-miterlimit:10;}
	.st3{fill:#30469B;stroke:#2F449C;stroke-miterlimit:10;}
	.st4{fill:none;}
	.st5{fill:#FFFFFF;}
	.st6{font-family:'SourceSansPro-ExtraLight';}
	.st7{font-size:60px;}
	.st8{letter-spacing:6;}
	.st9{font-size:24px;}
	.st10{letter-spacing:2;}
</style>
<path class="st0" d="M566.37,336.37l-380.6,64.48c-7.71,1.31-15.68-1.65-20.23-8c-2.42-3.37-3.84-7.48-3.84-11.92V146.51
	c0-10.88,11.72-21.35,19.38-30.28c10.62-12.38,31.26-39.23,35.39-44.1l358.23-10.58c1.18-0.19,2.39-0.29,3.58-0.28
	c10.03,0.09,14.94,4.68,14.94,19.63l49.64,186.91l-42.56,48.39c-9.05,8.61-20.48,17.66-31.8,19.97
	C567.79,336.31,567.07,336.25,566.37,336.37z"/>
<path class="st1" d="M614.98,280.79l-380.6,64.48c-7.71,1.31-15.68-1.65-20.23-8c-2.42-3.37-3.84-7.48-3.84-11.92V90.92
	c0-10.88,8.59-19.86,19.32-20.49c0.8-0.05,1.6-0.1,2.39-0.23L623.3,5.96c1.18-0.19,2.39-0.29,3.58-0.28
	c10.03,0.09,14.94,4.68,14.94,19.63v233.31c0,10.93-13.61,21.33-24.72,21.96C616.39,280.62,615.68,280.67,614.98,280.79z"/>
<polygon class="st2" points="645.46,243.48 209.69,315.24 161.29,368.1 5.17,344.94 57.08,307.13 5,254.95 160.78,282.63 
	208.4,220.84 645.54,145.81 "/>
<g>
	<path class="st3" d="M354.43,85.97c0.32-0.32,1.28-0.32,1.6,0l0.67,51.73c0,12.48-7.99,26.06-20.15,26.06s-20.16-7.68-20.16-20.16
		l-0.78-50.35c0.32-0.32,1.28-0.32,1.6,0l0.78,50.35c0,11.76,7.36,18.72,18.56,18.72s18.55-12.85,18.55-24.61L354.43,85.97z"/>
</g>
<g>
	<path class="st3" d="M397.63,78.87c10.5,0,18.22,11.51,18.22,19.46c0,5.84-4.62,14.57-11.05,16.35c8.8,1.78,15.32,10.85,15.32,17.1
		c0,8.03-5.36,19.22-18.83,20.8l-26.59,3.99l-0.13-74.51L397.63,78.87z M377.16,117.31l21.91-2.98c9.21-0.88,15.04-9.27,15.04-16.17
		c0-7.22-7.11-17.83-16.47-17.83l-21.17,3.2L377.16,117.31z M376.84,154.24l23.87-3.83c12.49-1.58,17.66-11.34,17.66-18.64
		c0-6.89-5.91-15.87-18.49-15.87l-23.14,3.34L376.84,154.24z"/>
</g>
<g>
	<path class="st3" d="M476.07,136.97c0.39,0.45,0.39,1.59,0,2.04l-42.59,7.18V72.46l43.59-7.38c0.57,0,1.12,0.3,1.12,0.87
		c0,0.01-0.05,0.16-0.05,0.16c0,0.57-0.46,0.87-1.03,0.87l-41.68,7.52v32.67l38.89-6.52c0.39,0.45,0.39,1.59,0,2.04l-38.89,6.52
		v34.94L476.07,136.97z"/>
</g>
<g>
	<path class="st3" d="M541.71,128.48c-0.35,0.45-1.39,0.45-1.73,0l-41.64-62.74l-0.12,70.7c-0.35,0.45-1.38,0.45-1.73,0l0.12-74.32
		c0.35-0.45,1.39-0.45,1.73,0l41.64,62.74V54.81c0.35-0.45,1.38-0.45,1.73,0V128.48z"/>
</g>
<rect x="961.96" y="436.23" class="st4" width="192.92" height="178.37"/>
<path class="st3" d="M562.35,44.18c-0.7,0.11-0.87,0.11-1.22,0.11c-1.75,0-3.32-0.91-3.32-2.29c0-1.14,1.05-2.4,3.67-2.4
	c2.1,0,3.5,1.03,4.02,2.74c1.23,3.89-1.05,13.27-4.55,15.78c-0.7,0.46-2.8,0.46-3.5,0C560.42,55.61,563.22,48.18,562.35,44.18z"/>
<path class="st3" d="M610.9,53.73c0.37,0.43,0.37,2.13,0,2.55c-4.2-4.89-10.64-7.76-17.83-7.76c-10.92,0-16.99,7.23-16.99,15.2
	c0,9.46,5.51,12.22,18.85,17.11c10.36,3.83,18.76,7.44,18.76,19.77c0,10.52-8.12,18.28-19.6,18.28c-6.25,0-13.63-2.55-19.04-7.44
	c-0.37-0.42-0.37-2.13,0-2.55c5.13,5.21,12.6,8.08,19.04,8.08c10.36,0,17.73-6.8,17.73-16.37c0-11.37-7.65-14.35-18.76-18.28
	c-11.11-3.93-18.85-7.55-18.85-18.6c0-8.93,6.81-17.11,18.85-17.11C600.07,46.61,606.42,49.16,610.9,53.73z"/>
<g>
	<path class="st3" d="M281.51,96.55c13.2,0,18.72,11.22,18.72,23.14c0,10.88-5.94,22.11-16.66,23.96l13.46,31.85
		c-0.32,0.46-1.68,0.46-2,0l-14.69-32.19l-19.31,3.26l-0.22,34.88c-0.32,0.46-1.28,0.46-1.6,0l0.22-81.17L281.51,96.55z
		 M261.03,144.48l20.59-3.28c12.02-1.4,17.01-10.64,17.01-21.52c0-10.88-4.88-21.06-17.12-21.06l-20.48,3.74V144.48z"/>
</g>
<rect x="331" y="191.66" transform="matrix(0.9854 -0.1702 0.1702 0.9854 -33.1537 77.6915)" class="st4" width="211.09" height="81.1"/>
<text transform="matrix(0.9854 -0.1702 0.1702 0.9854 333.8413 252.7547)"><tspan x="0" y="0" class="st5 st6 st7 st8">UNISEX</tspan><tspan x="49" y="28.8" class="st5 st6 st9 st10">EST. 1982</tspan></text>
</svg>
